<svg width="192" height="191" viewBox="0 0 192 191" fill="none" xmlns="http://www.w3.org/2000/svg">
<g clip-path="url(#clip0_39750_331259)">
<rect x="64.6758" y="11.2051" width="92.6987" height="126.315" rx="0.509333" fill="#FF931E" stroke="#07131A" stroke-width="2.03733"/>
<rect x="114.078" y="96.7734" width="66.7227" height="65.1947" rx="0.509333" fill="#3FA9F5" stroke="#07131A" stroke-width="2.03733"/>
<rect x="15.2734" y="75.8906" width="105.941" height="101.867" rx="0.509333" fill="#FDD131" stroke="#07131A" stroke-width="2.03733"/>
<path d="M144.817 43.3364C142.61 43.4383 141.825 44.811 141.897 46.3112C141.968 47.8114 143.204 48.7567 145.071 48.6705C146.938 48.5843 147.707 46.8782 147.659 45.8781C147.612 44.8779 146.514 43.2581 144.817 43.3364Z" fill="white"/>
<path d="M149.16 49.3423C148.142 49.3893 147.349 50.5953 147.388 51.4288C147.428 52.2622 148.163 53.3977 149.351 53.3429C150.539 53.288 151.348 52.4154 151.292 51.2486C151.236 50.0817 150.178 49.2953 149.16 49.3423Z" fill="white"/>
<path fill-rule="evenodd" clip-rule="evenodd" d="M146.401 62.0845C139.896 58.0328 135.976 50.4299 140.352 39.3308C141.354 39.102 142.368 38.9265 143.389 38.8063C146.112 38.4855 148.879 38.5584 151.566 39.065C153.524 39.4343 155.44 40.0341 157.265 40.8798C158.259 51.7891 154.128 59.0052 146.401 62.0845ZM144.817 43.3364C142.61 43.4383 141.825 44.811 141.897 46.3112C141.968 47.8114 143.204 48.7567 145.071 48.6705C146.938 48.5843 147.707 46.8782 147.659 45.8781C147.612 44.8779 146.514 43.2581 144.817 43.3364ZM149.16 49.3423C148.142 49.3893 147.349 50.5953 147.388 51.4288C147.428 52.2622 148.163 53.3977 149.351 53.3429C150.539 53.288 151.348 52.4154 151.292 51.2486C151.236 50.0817 150.178 49.2953 149.16 49.3423Z" fill="#07131A"/>
<path d="M153.994 65.0428C147.214 66.5174 139.893 66.2496 134.371 63.7163C138.98 63.9833 143.032 63.4271 146.401 62.0845C148.694 63.5126 151.309 64.4996 153.994 65.0428Z" fill="white"/>
<path d="M134.371 63.7163C129.431 61.4499 125.131 57.9311 122.317 53.4908C125.44 46.1812 132.504 41.123 140.352 39.3308C135.976 50.4299 139.896 58.0328 146.401 62.0845C143.032 63.4271 138.98 63.9833 134.371 63.7163Z" fill="#07131A"/>
<path d="M157.265 40.8798C157.617 41.0429 157.966 41.2152 158.31 41.3967C160.807 42.7111 164.247 44.4584 166.221 46.7862C167.876 48.7371 170.545 51.1682 171.662 53.8855C168.835 59.37 161.77 63.352 153.994 65.0428C151.309 64.4996 148.694 63.5126 146.401 62.0845C154.128 59.0052 158.259 51.7891 157.265 40.8798Z" fill="white"/>
<path d="M172.078 52.4089L178.705 48.1664C179.178 47.8632 179.808 48.0016 180.112 48.4755C180.416 48.9494 180.279 49.5793 179.805 49.8825L172.438 54.5991C169.332 60.3401 162.017 64.3365 154.234 66.0334C154.219 66.037 154.204 66.0403 154.189 66.0432C147.281 67.5412 139.742 67.2922 133.969 64.6521C133.955 64.6458 133.94 64.6391 133.926 64.6321C128.841 62.2948 124.386 58.6578 121.457 54.0351C121.277 53.7515 121.248 53.3979 121.38 53.0896C124.653 45.428 132.015 40.1932 140.111 38.3407C140.12 38.3385 140.129 38.3364 140.139 38.3344C140.862 38.1695 141.593 38.0314 142.327 37.9209L141.935 29.6982C141.908 29.1362 142.342 28.6596 142.904 28.6337C143.466 28.6077 143.944 29.0423 143.97 29.6042L144.356 37.687C146.45 37.5191 148.563 37.577 150.643 37.879L151.312 29.9665C151.359 29.406 151.852 28.9907 152.413 29.0389C152.973 29.087 153.389 29.5804 153.342 30.1409L152.657 38.2509C154.374 38.6377 156.057 39.1996 157.674 39.9474C157.686 39.9525 157.698 39.9579 157.709 39.9634C157.739 39.9772 157.768 39.9911 157.798 40.0051L161.507 31.3558C161.729 30.8391 162.328 30.6004 162.845 30.8227C163.362 31.0451 163.602 31.6442 163.38 32.161L159.618 40.9337C161.682 42.0205 164.3 43.4513 166.196 45.2777L172.561 38.0975C172.933 37.6768 173.577 37.6385 173.999 38.0119C174.42 38.3854 174.459 39.0292 174.086 39.4499L167.579 46.7908C167.81 47.0468 168.054 47.313 168.31 47.5917L168.362 47.648C168.861 48.1916 169.398 48.7766 169.919 49.389C170.699 50.3061 171.477 51.3191 172.078 52.4089Z" stroke="#07131A" stroke-width="2.03733" stroke-linecap="round" stroke-linejoin="round"/>
<path d="M167.559 87.6055L180.801 87.6055" stroke="#07131A" stroke-width="2.03733" stroke-linecap="round" stroke-linejoin="round"/>
<path d="M88.1344 43.548C71.1744 43.5582 14.9067 44.1319 8.61737 53.1263C8.47473 53.3303 8.54225 53.5928 8.74284 53.7402C13.2708 57.0675 18.9105 57.5439 23.6784 61.1199C28.5346 64.762 65.36 65.1888 88.1501 63.6976C88.4176 63.6801 88.6184 63.4583 88.6184 63.1902V44.0572C88.6184 43.7759 88.4157 43.5478 88.1344 43.548Z" fill="#07131A" stroke="black" stroke-width="2.03733"/>
<path fill-rule="evenodd" clip-rule="evenodd" d="M32.1133 49.8448C40.1663 48.8396 46.3976 41.9697 46.3976 33.6443C46.3976 25.319 40.1663 18.449 32.1133 17.4439C32.7824 17.3604 33.4642 17.3174 34.156 17.3174C43.1731 17.3174 50.4829 24.6272 50.4829 33.6443C50.4829 42.6615 43.1731 49.9713 34.156 49.9713C33.4642 49.9713 32.7824 49.9283 32.1133 49.8448Z" fill="#07131A"/>
<path d="M32.1133 49.8448L31.9871 48.8339L31.9871 50.8556L32.1133 49.8448ZM32.1133 17.4439L31.9871 16.4331L31.9871 18.4548L32.1133 17.4439ZM45.3789 33.6443C45.3789 41.4495 39.5367 47.8917 31.9871 48.8339L32.2394 50.8556C40.796 49.7876 47.4162 42.4899 47.4162 33.6443H45.3789ZM31.9871 18.4548C39.5367 19.397 45.3789 25.8392 45.3789 33.6443H47.4162C47.4162 24.7988 40.796 17.5011 32.2394 16.4331L31.9871 18.4548ZM32.2394 18.4548C32.8669 18.3764 33.5065 18.336 34.156 18.336V16.2987C33.4219 16.2987 32.698 16.3444 31.9871 16.4331L32.2394 18.4548ZM34.156 18.336C42.6105 18.336 49.4643 25.1898 49.4643 33.6443H51.5016C51.5016 24.0646 43.7357 16.2987 34.156 16.2987V18.336ZM49.4643 33.6443C49.4643 42.0989 42.6105 48.9526 34.156 48.9526V50.99C43.7357 50.99 51.5016 43.2241 51.5016 33.6443H49.4643ZM34.156 48.9526C33.5065 48.9526 32.8669 48.9122 32.2394 48.8339L31.9871 50.8556C32.698 50.9443 33.4219 50.99 34.156 50.99V48.9526Z" fill="black"/>
<circle cx="30.0692" cy="33.6443" r="16.327" fill="white" stroke="black" stroke-width="2.03733"/>
<path fill-rule="evenodd" clip-rule="evenodd" d="M41.729 35.2428C41.0202 40.4593 36.891 44.5885 31.6746 45.2973V44.0775C36.2233 43.3864 39.8181 39.7915 40.5091 35.2428H41.729ZM41.8088 32.8282C41.4261 27.2468 37.1491 22.7358 31.6746 21.9919V23.2118C36.4809 23.942 40.2223 27.9143 40.5983 32.8282H41.8088ZM19.5543 32.8282C19.9504 27.6508 24.0825 23.5187 29.26 23.1226V21.9121C23.4154 22.3128 18.7445 26.9837 18.3438 32.8282H19.5543ZM18.4235 35.2428C19.1674 40.7174 23.6785 44.9945 29.26 45.3772V44.1666C24.346 43.7907 20.3736 40.0493 19.6434 35.2428H18.4235Z" fill="black"/>
<path d="M31.6746 45.2973H31.2926V45.7348L31.726 45.6759L31.6746 45.2973ZM41.729 35.2428L42.1075 35.2943L42.1664 34.8608H41.729V35.2428ZM31.6746 44.0775L31.6172 43.6998L31.2926 43.7491V44.0775H31.6746ZM40.5091 35.2428V34.8608H40.1808L40.1315 35.1855L40.5091 35.2428ZM41.8088 32.8282V33.2102H42.2179L42.1899 32.8021L41.8088 32.8282ZM31.6746 21.9919L31.726 21.6134L31.2926 21.5545V21.9919H31.6746ZM31.6746 23.2118H31.2926V23.5401L31.6172 23.5894L31.6746 23.2118ZM40.5983 32.8282L40.2174 32.8574L40.2444 33.2102H40.5983V32.8282ZM29.26 23.1226L29.2891 23.5035L29.642 23.4765V23.1226H29.26ZM19.5543 32.8282V33.2102H19.9082L19.9352 32.8574L19.5543 32.8282ZM29.26 21.9121H29.642V21.503L29.2338 21.531L29.26 21.9121ZM18.3438 32.8282L17.9626 32.8021L17.9347 33.2102H18.3438V32.8282ZM29.26 45.3772L29.2338 45.7583L29.642 45.7862V45.3772H29.26ZM18.4235 35.2428V34.8608H17.9861L18.045 35.2943L18.4235 35.2428ZM29.26 44.1666H29.642V43.8127L29.2891 43.7857L29.26 44.1666ZM19.6434 35.2428L20.0211 35.1855L19.9717 34.8608H19.6434V35.2428ZM31.726 45.6759C37.1126 44.9439 41.3756 40.6809 42.1075 35.2943L41.3505 35.1914C40.6648 40.2377 36.6694 44.2331 31.6231 44.9188L31.726 45.6759ZM31.2926 44.0775V45.2973H32.0566V44.0775H31.2926ZM40.1315 35.1855C39.4656 39.5688 36.0005 43.0339 31.6172 43.6998L31.732 44.4552C36.446 43.7389 40.1706 40.0143 40.8868 35.3002L40.1315 35.1855ZM41.729 34.8608H40.5091V35.6248H41.729V34.8608ZM42.1899 32.8021C41.7947 27.0387 37.3788 22.3815 31.726 21.6134L31.6231 22.3704C36.9193 23.0901 41.0574 27.455 41.4277 32.8543L42.1899 32.8021ZM31.2926 21.9919V23.2118H32.0566V21.9919H31.2926ZM31.6172 23.5894C36.249 24.2932 39.8551 28.1221 40.2174 32.8574L40.9791 32.7991C40.5895 27.7065 36.7128 23.5909 31.732 22.8341L31.6172 23.5894ZM40.5983 33.2102H41.8088V32.4462H40.5983V33.2102ZM29.2308 22.7417C23.8654 23.1522 19.5839 27.4337 19.1734 32.7991L19.9352 32.8574C20.3169 27.8679 24.2997 23.8852 29.2891 23.5035L29.2308 22.7417ZM28.878 21.9121V23.1226H29.642V21.9121H28.878ZM18.7249 32.8543C19.1126 27.2002 23.6319 22.6809 29.2861 22.2932L29.2338 21.531C23.1989 21.9448 18.3765 26.7672 17.9626 32.8021L18.7249 32.8543ZM18.3438 33.2102H19.5543V32.4462H18.3438V33.2102ZM29.2861 44.9961C23.8866 44.6259 19.5216 40.4876 18.8021 35.1914L18.045 35.2943C18.8131 40.9472 23.4704 45.3631 29.2338 45.7583L29.2861 44.9961ZM28.878 44.1666V45.3772H29.642V44.1666H28.878ZM19.2657 35.3002C20.0224 40.2811 24.1382 44.1579 29.2308 44.5475L29.2891 43.7857C24.5537 43.4235 20.7247 39.8174 20.0211 35.1855L19.2657 35.3002ZM19.6434 34.8608H18.4235V35.6248H19.6434V34.8608Z" fill="black"/>
<path fill-rule="evenodd" clip-rule="evenodd" d="M57.5469 66.6396C66.4798 65.5253 73.392 57.905 73.392 48.6702C73.392 39.4354 66.4798 31.8151 57.5469 30.7008C58.2887 30.6082 59.0445 30.5605 59.8114 30.5605C69.813 30.5605 77.921 38.6685 77.921 48.6702C77.921 58.6719 69.813 66.7798 59.8114 66.7798C59.0445 66.7798 58.2887 66.7321 57.5469 66.6396Z" fill="#07131A"/>
<path d="M57.5469 66.6396L57.4208 65.6288L57.4208 67.6504L57.5469 66.6396ZM57.5469 30.7008L57.4208 29.6899L57.4208 31.7116L57.5469 30.7008ZM72.3733 48.6702C72.3733 57.3847 65.8502 64.5773 57.4208 65.6288L57.673 67.6504C67.1094 66.4733 74.4107 58.4252 74.4107 48.6702H72.3733ZM57.4208 31.7116C65.8502 32.7631 72.3733 39.9556 72.3733 48.6702H74.4107C74.4107 38.9152 67.1094 30.867 57.673 29.6899L57.4208 31.7116ZM57.673 31.7116C58.3731 31.6243 59.0867 31.5792 59.8114 31.5792V29.5419C59.0022 29.5419 58.2043 29.5922 57.4208 29.6899L57.673 31.7116ZM59.8114 31.5792C69.2504 31.5792 76.9023 39.2311 76.9023 48.6702H78.9397C78.9397 38.1059 70.3756 29.5419 59.8114 29.5419V31.5792ZM76.9023 48.6702C76.9023 58.1093 69.2504 65.7611 59.8114 65.7611V67.7985C70.3756 67.7985 78.9397 59.2344 78.9397 48.6702H76.9023ZM59.8114 65.7611C59.0867 65.7611 58.3731 65.7161 57.673 65.6288L57.4208 67.6504C58.2043 67.7482 59.0022 67.7985 59.8114 67.7985V65.7611Z" fill="black"/>
<circle cx="55.2815" cy="48.6702" r="18.1096" fill="white" stroke="black" stroke-width="2.03733"/>
<path fill-rule="evenodd" clip-rule="evenodd" d="M68.1791 50.1792C67.4888 56.1409 62.7584 60.8714 56.7967 61.5619V60.3455C62.0908 59.6679 66.2853 55.4734 66.9627 50.1792H68.1791ZM68.2348 47.7646C67.8044 41.521 62.9582 36.492 56.7967 35.7784V36.9948C62.2905 37.698 66.6 42.1882 67.0243 47.7646H68.2348ZM43.5504 47.7645C43.9901 41.9854 48.6028 37.3727 54.3821 36.9332V35.7227C47.9357 36.1668 42.7842 41.3183 42.3398 47.7645H43.5504ZM42.3955 50.1792C43.109 56.341 48.1382 61.1875 54.3821 61.6176V60.4071C48.8055 59.983 44.3149 55.6732 43.6119 50.1792H42.3955Z" fill="black"/>
<path d="M56.7967 61.5619H56.4147V61.9907L56.8406 61.9413L56.7967 61.5619ZM68.1791 50.1792L68.5586 50.2231L68.6079 49.7972H68.1791V50.1792ZM56.7967 60.3455L56.7482 59.9666L56.4147 60.0093V60.3455H56.7967ZM66.9627 50.1792V49.7972H66.6265L66.5838 50.1307L66.9627 50.1792ZM68.2348 47.7646V48.1466H68.644L68.6159 47.7383L68.2348 47.7646ZM56.7967 35.7784L56.8406 35.3989L56.4147 35.3496V35.7784H56.7967ZM56.7967 36.9948H56.4147V37.331L56.7482 37.3737L56.7967 36.9948ZM67.0243 47.7646L66.6434 47.7935L66.6702 48.1466H67.0243V47.7646ZM54.3821 36.9332L54.411 37.3141L54.7641 37.2872V36.9332H54.3821ZM43.5504 47.7645V48.1465H43.9044L43.9313 47.7935L43.5504 47.7645ZM54.3821 35.7227H54.7641V35.3134L54.3558 35.3416L54.3821 35.7227ZM42.3398 47.7645L41.9587 47.7383L41.9306 48.1465H42.3398V47.7645ZM54.3821 61.6176L54.3558 61.9987L54.7641 62.0269V61.6176H54.3821ZM42.3955 50.1792V49.7972H41.9667L42.0161 50.2231L42.3955 50.1792ZM54.3821 60.4071H54.7641V60.0531L54.411 60.0262L54.3821 60.4071ZM43.6119 50.1792L43.9908 50.1307L43.9481 49.7972H43.6119V50.1792ZM56.8406 61.9413C62.9785 61.2305 67.8478 56.361 68.5586 50.2231L67.7996 50.1352C67.1297 55.9208 62.5383 60.5123 56.7527 61.1824L56.8406 61.9413ZM56.4147 60.3455V61.5619H57.1787V60.3455H56.4147ZM66.5838 50.1307C65.9284 55.2524 61.8698 59.3111 56.7482 59.9666L56.8452 60.7244C62.3119 60.0247 66.6421 55.6944 67.3417 50.2277L66.5838 50.1307ZM68.1791 49.7972H66.9627V50.5612H68.1791V49.7972ZM68.6159 47.7383C68.1728 41.3103 63.1841 36.1336 56.8406 35.3989L56.7527 36.1579C62.7323 36.8504 67.4361 41.7316 67.8537 47.7908L68.6159 47.7383ZM56.4147 35.7784V36.9948H57.1787V35.7784H56.4147ZM56.7482 37.3737C62.0631 38.054 66.2329 42.3989 66.6434 47.7935L67.4052 47.7356C66.9671 41.9776 62.5178 37.3419 56.8452 36.6158L56.7482 37.3737ZM67.0243 48.1466H68.2348V47.3826H67.0243V48.1466ZM54.3531 36.5523C48.3858 37.0061 43.6235 41.7683 43.1695 47.7356L43.9313 47.7935C44.3566 42.2025 48.8199 37.7393 54.411 37.3141L54.3531 36.5523ZM54.0001 35.7227V36.9332H54.7641V35.7227H54.0001ZM42.7209 47.7908C43.1521 41.5348 48.1523 36.5348 54.4083 36.1038L54.3558 35.3416C47.7192 35.7988 42.4162 41.1017 41.9587 47.7383L42.7209 47.7908ZM42.3398 48.1465H43.5504V47.3825H42.3398V48.1465ZM54.4083 61.2365C48.3489 60.8191 43.4674 56.1151 42.775 50.1352L42.0161 50.2231C42.7506 56.5668 47.9275 61.5558 54.3558 61.9987L54.4083 61.2365ZM54.0001 60.4071V61.6176H54.7641V60.4071H54.0001ZM43.233 50.2277C43.9589 55.9006 48.5948 60.3501 54.3531 60.788L54.411 60.0262C49.0161 59.6159 44.671 55.4459 43.9908 50.1307L43.233 50.2277ZM43.6119 49.7972H42.3955V50.5612H43.6119V49.7972Z" fill="black"/>
<path d="M96.2592 57.5544C72.3205 60.6104 32.5925 63.921 8.14453 53.7344L8.14453 90.661L8.14453 99.829L8.14453 112.562L8.14453 130.134C17.3125 139.302 75.8859 140.83 96.2592 128.861V107.469C92.4502 108.545 84.005 110.236 79.9998 108.616C79.8173 108.543 79.7059 108.362 79.7059 108.165V88.4133C79.7059 88.1153 79.9594 87.8812 80.257 87.8966C85.1896 88.1511 92.9065 86.6401 96.2592 85.8224V79.201V57.5544Z" fill="white"/>
<path fill-rule="evenodd" clip-rule="evenodd" d="M96.2592 85.8224C92.9065 86.6401 85.1896 88.1511 80.257 87.8966C79.9594 87.8812 79.7059 88.1153 79.7059 88.4133V108.165C79.7059 108.362 79.8173 108.543 79.9998 108.616C84.005 110.236 92.4502 108.545 96.2592 107.469C98.8059 106.749 103.135 104.462 103.135 102.376V81.7477C100.843 84.2944 99.0605 85.1391 96.2592 85.8224ZM90.6565 98.0464C90.6565 96.773 90.1472 93.9717 86.8365 93.9717C83.5259 93.9717 83.2712 96.773 83.2712 98.0464C83.2712 99.3197 83.7805 102.376 87.0912 102.376C90.4019 102.376 90.6565 99.3197 90.6565 98.0464Z" fill="white"/>
<path d="M86.8365 93.9717C90.1472 93.9717 90.6565 96.773 90.6565 98.0464C90.6565 99.3197 90.4019 102.376 87.0912 102.376C83.7805 102.376 83.2712 99.3197 83.2712 98.0464C83.2712 96.773 83.5259 93.9717 86.8365 93.9717Z" fill="white"/>
<path d="M96.2592 85.8224C99.0605 85.1391 100.843 84.2944 103.135 81.7477C102.286 81.1535 99.8245 79.201 96.2592 79.201V85.8224Z" fill="#07131A"/>
<path d="M96.2592 57.5544C72.3205 60.6104 32.5925 63.921 8.14453 53.7344M96.2592 57.5544C96.2592 63.5547 96.2592 70.4591 96.2592 79.201M96.2592 57.5544V79.201M8.14453 53.7344C8.14453 58.7563 8.14453 74.1425 8.14453 90.661M8.14453 53.7344L8.14453 90.661M8.14453 130.134C17.3125 139.302 75.8859 140.83 96.2592 128.861M8.14453 130.134C8.14453 125.266 8.14453 119.178 8.14453 112.562M8.14453 130.134L8.14453 112.562M96.2592 128.861C96.2592 124.753 96.2592 116.823 96.2592 107.469M96.2592 128.861V107.469M8.14453 99.829H36.9219M8.14453 99.829C8.14453 96.773 8.14453 93.6979 8.14453 90.661M8.14453 99.829C8.14453 104.167 8.14453 108.466 8.14453 112.562M8.14453 99.829L8.14453 90.661M8.14453 99.829L8.14453 112.562M8.14453 90.661H22.4496C22.5846 90.661 22.7142 90.6074 22.8097 90.5119L31.8285 81.493M8.14453 112.562H22.4496C22.5846 112.562 22.7142 112.616 22.8097 112.712L31.8285 121.73M96.2592 85.8224C92.9065 86.6401 85.1896 88.1511 80.257 87.8966C79.9594 87.8812 79.7059 88.1153 79.7059 88.4133V108.165C79.7059 108.362 79.8173 108.543 79.9998 108.616C84.005 110.236 92.4502 108.545 96.2592 107.469M96.2592 85.8224C99.0605 85.1391 100.843 84.2944 103.135 81.7477M96.2592 85.8224C96.2592 84.0256 96.2592 80.9651 96.2592 79.201M96.2592 85.8224V79.201M96.2592 107.469C98.8059 106.749 103.135 104.462 103.135 102.376M103.135 81.7477C103.135 84.7577 103.135 99.4641 103.135 102.376M103.135 81.7477C102.286 81.1535 99.8245 79.201 96.2592 79.201M103.135 81.7477V102.376M86.8365 93.9717C90.1472 93.9717 90.6565 96.773 90.6565 98.0464C90.6565 99.3197 90.4019 102.376 87.0912 102.376C83.7805 102.376 83.2712 99.3197 83.2712 98.0464C83.2712 96.773 83.5259 93.9717 86.8365 93.9717Z" stroke="black" stroke-width="2.03733" stroke-linejoin="round"/>
<circle cx="35.3949" cy="77.6732" r="5.348" stroke="black" stroke-width="2.03733"/>
<circle cx="35.3949" cy="125.55" r="5.348" stroke="black" stroke-width="2.03733"/>
<circle cx="42.5238" cy="100.083" r="5.348" stroke="black" stroke-width="2.03733"/>
<path fill-rule="evenodd" clip-rule="evenodd" d="M109.388 137.674L109.38 137.648C109.383 137.656 109.386 137.665 109.388 137.674Z" fill="white"/>
<path d="M130.959 138.256C130.75 137.072 129.037 134.245 126.363 131.571C123.689 128.897 120.097 127.254 118.635 126.767C117.173 129.065 115.294 134.454 119.47 137.628C124.691 141.596 123.021 146.61 120.6 149.297C117.564 154.408 105.222 166.765 99.2023 172.517C94.3982 177.321 88.5497 175.651 84.9989 172.1C81.448 168.549 81.8658 163.536 86.0432 159.358L107.348 138.053C107.509 137.892 107.943 137.558 108.591 137.26C108.911 137.113 109.269 137.317 109.38 137.648C108.431 134.609 108.46 130.787 108.61 128.021C107.217 128.3 105.267 128.438 102.761 130.945L76.0247 157.681C72.265 161.44 71.2206 170.422 79.1575 178.777C87.0944 187.131 97.5387 185.461 100.672 182.328L127.408 155.592C128.452 154.547 130.889 150.859 131.377 147.447C131.656 145.497 131.629 141.599 130.959 138.256Z" fill="white"/>
<path d="M140.358 102.955C145.162 98.1512 151.01 99.8222 154.561 103.373C158.112 106.924 157.694 111.937 153.517 116.114L132.211 137.419C132.003 137.628 131.962 137.922 130.959 138.256C131.629 141.599 131.656 145.497 131.377 147.447C132.839 147.238 136.18 146.819 138.896 144.104C141.402 141.597 150.802 133.033 160.201 122.799C169.6 112.564 167.302 102.329 161.454 96.4802C155.605 90.6317 144.536 87.4997 134.718 97.316C133.047 98.9869 118.844 113.19 111.951 120.083C111.374 120.788 108.781 124.851 108.61 128.021C108.46 130.787 108.431 134.609 109.38 137.648C109.383 137.656 109.386 137.665 109.388 137.674C109.806 139.112 110.932 141.637 113.197 143.902C115.538 146.243 118.583 147.793 120.286 148.47C120.62 148.603 120.784 148.988 120.6 149.297C123.021 146.61 124.691 141.596 119.47 137.628C115.294 134.454 117.173 129.065 118.635 126.767C120.974 122.088 134.091 108.943 140.358 102.955Z" fill="white"/>
<path d="M153.517 116.114C157.694 111.937 158.112 106.924 154.561 103.373C151.01 99.8222 145.162 98.1512 140.358 102.955C134.091 108.943 120.974 122.088 118.635 126.767M153.517 116.114C150.175 119.456 137.921 131.71 132.211 137.419M153.517 116.114L132.211 137.419M132.211 137.419C132.003 137.628 131.962 137.922 130.959 138.256M130.959 138.256C130.75 137.072 129.037 134.245 126.363 131.571C123.689 128.897 120.097 127.254 118.635 126.767M130.959 138.256C131.629 141.599 131.656 145.497 131.377 147.447M118.635 126.767C117.173 129.065 115.294 134.454 119.47 137.628C124.691 141.596 123.021 146.61 120.6 149.297M131.377 147.447C132.839 147.238 136.18 146.819 138.896 144.104C141.402 141.597 150.802 133.033 160.201 122.799C169.6 112.564 167.302 102.329 161.454 96.4802C155.605 90.6317 144.536 87.4997 134.718 97.316C133.047 98.9869 118.844 113.19 111.951 120.083C111.374 120.788 108.781 124.851 108.61 128.021M131.377 147.447C130.889 150.859 128.452 154.547 127.408 155.592M127.408 155.592C119.54 163.459 103.178 179.821 100.672 182.328M127.408 155.592L100.672 182.328M100.672 182.328C97.5387 185.461 87.0944 187.131 79.1575 178.777C71.2206 170.422 72.265 161.44 76.0247 157.681M76.0247 157.681C79.7844 153.921 99.6275 134.078 102.761 130.945M76.0247 157.681L102.761 130.945M102.761 130.945C105.267 128.438 107.217 128.3 108.61 128.021M108.61 128.021C108.46 130.787 108.431 134.609 109.38 137.648M109.388 137.674C109.806 139.112 110.932 141.637 113.197 143.902C115.538 146.243 118.583 147.793 120.286 148.47C120.62 148.603 120.784 148.988 120.6 149.297M109.388 137.674L109.38 137.648M109.388 137.674C109.386 137.665 109.383 137.656 109.38 137.648M120.6 149.297C117.564 154.408 105.222 166.765 99.2023 172.517C94.3982 177.321 88.5497 175.651 84.9989 172.1C81.448 168.549 81.8658 163.536 86.0432 159.358L107.348 138.053C107.509 137.892 107.943 137.558 108.591 137.26C108.911 137.113 109.269 137.317 109.38 137.648" stroke="black" stroke-width="2.03733" stroke-linecap="round"/>
</g>
<defs>
<clipPath id="clip0_39750_331259">
<rect width="191" height="191" fill="white" transform="translate(0.5)"/>
</clipPath>
</defs>
</svg>
