<svg width="175" height="37" viewBox="0 0 175 37" fill="none" xmlns="http://www.w3.org/2000/svg">
<g clip-path="url(#clip0_36451_363457)">
<path d="M45.0874 7.07845H54.4507C56.7203 7.01715 58.9729 7.48501 61.0304 8.44499C62.8103 9.30286 64.285 10.6849 65.2565 12.4054C66.2738 14.2921 66.7798 16.4121 66.7243 18.5548C66.7816 20.7083 66.2803 22.84 65.2692 24.7422C64.3056 26.4644 62.8342 27.8474 61.0557 28.7027C58.9895 29.6634 56.7285 30.1312 54.4507 30.0692H45.0874V7.07845ZM54.0332 25.261C54.9455 25.333 55.863 25.2224 56.732 24.9356C57.6011 24.6489 58.4042 24.1917 59.0944 23.5908C59.6977 22.9021 60.1565 22.0992 60.4434 21.2297C60.7303 20.3603 60.8395 19.442 60.7646 18.5295C60.8432 17.6168 60.7357 16.6976 60.4486 15.8276C60.1615 14.9576 59.7008 14.155 59.0944 13.4683C58.4011 12.8737 57.5969 12.4222 56.7282 12.1399C55.8596 11.8576 54.9436 11.75 54.0332 11.8234H51.047V25.261H54.0332ZM84.7297 23.1732H74.8096C74.8903 24.0411 75.2973 24.846 75.9484 25.4255C76.692 25.9293 77.5829 26.1699 78.479 26.1088C80.1025 26.0877 81.6816 25.576 83.0089 24.641L84.4766 28.4369C83.5932 29.0638 82.6089 29.5346 81.5664 29.8288C80.4666 30.1611 79.3243 30.3316 78.1754 30.3349C76.5197 30.3766 74.8773 30.03 73.3798 29.3227C72.0742 28.6863 70.9898 27.6724 70.2671 26.4124C69.5157 25.0552 69.1401 23.5221 69.179 21.9712C69.152 20.4656 69.5045 18.9774 70.2039 17.6438C70.8595 16.4 71.8557 15.3686 73.0761 14.6703C74.3444 13.9517 75.7815 13.5848 77.239 13.6075C78.2534 13.5693 79.2642 13.7494 80.2029 14.1358C81.1416 14.5222 81.9863 15.1058 82.6799 15.8471C84.1019 17.5209 84.8266 19.677 84.7044 21.87L84.7297 23.1732ZM74.7464 20.3769H79.8076C79.6811 18.4625 78.8371 17.5046 77.277 17.5046C75.7169 17.5046 74.8729 18.4625 74.7464 20.3769ZM97.9902 14.0503H103.671L96.5098 30.0819H91.7142L84.6664 14.0503H90.7399L94.2702 23.0847L97.9902 14.0503ZM113.845 14.0503H117.64V18.3271H113.845V30.1072H107.986V18.3018H105.038V14.0503H107.986C107.973 13.0988 108.163 12.1553 108.542 11.2827C108.922 10.4101 109.483 9.62819 110.188 8.98907C111.969 7.70508 114.116 7.02652 116.312 7.05314L118.298 6.92661L118.627 11.1401L117.096 11.2034C116.219 11.1725 115.349 11.364 114.566 11.7601C114.308 11.9641 114.107 12.2303 113.981 12.5336C113.855 12.8368 113.808 13.1672 113.845 13.4936V14.0503ZM122.765 29.3227C121.467 28.6745 120.388 27.6578 119.665 26.3998C118.914 25.0426 118.538 23.5094 118.577 21.9585C118.536 20.4115 118.912 18.8819 119.665 17.5299C120.388 16.2859 121.462 15.2826 122.752 14.645C124.219 13.9779 125.811 13.6328 127.421 13.6328C129.032 13.6328 130.624 13.9779 132.09 14.645C133.381 15.2826 134.454 16.2859 135.178 17.5299C135.931 18.8819 136.307 20.4115 136.266 21.9585C136.305 23.5094 135.929 25.0426 135.178 26.3998C134.44 27.6642 133.343 28.6814 132.027 29.3227C130.568 29.9991 128.979 30.3494 127.371 30.3494C125.762 30.3494 124.174 29.9991 122.714 29.3227H122.765ZM130.521 21.9585C130.521 19.2596 129.488 17.9095 127.421 17.9095C125.355 17.9095 124.321 19.2596 124.321 21.9585C124.321 24.6575 125.355 26.0075 127.421 26.0075C129.488 26.0075 130.521 24.6575 130.521 21.9585ZM138.91 30.0819V7.07845H144.68V30.0819H138.91ZM147.945 6.00293H154.018V11.254H147.945V6.00293ZM148.071 30.0439V14.0503H153.879V30.0819L148.071 30.0439ZM160.699 29.3227C159.401 28.6745 158.322 27.6578 157.599 26.3998C156.848 25.0426 156.472 23.5094 156.511 21.9585C156.47 20.4115 156.846 18.8819 157.599 17.5299C158.323 16.2859 159.396 15.2826 160.686 14.645C162.153 13.9779 163.745 13.6328 165.355 13.6328C166.966 13.6328 168.558 13.9779 170.024 14.645C171.315 15.2826 172.388 16.2859 173.112 17.5299C173.865 18.8819 174.241 20.4115 174.2 21.9585C174.239 23.5094 173.863 25.0426 173.112 26.3998C172.381 27.6605 171.293 28.6773 169.987 29.3227C168.527 29.9991 166.938 30.3494 165.33 30.3494C163.722 30.3494 162.133 29.9991 160.674 29.3227H160.699ZM168.455 21.9585C168.455 19.2596 167.422 17.9095 165.355 17.9095C163.289 17.9095 162.255 19.2596 162.255 21.9585C162.255 24.6575 163.289 26.0075 165.355 26.0075C167.422 26.0075 168.452 24.6575 168.443 21.9585H168.455Z" fill="#273339"/>
<g clip-path="url(#clip1_36451_363457)">
<path d="M34.7379 19.9653C34.7728 23.992 33.2986 27.8858 30.6057 30.8797C27.9128 33.8736 24.1964 35.7507 20.1886 36.1412C20.1886 36.1412 9.7435 36.408 6.28724 36.1412C5.65432 36.0652 5.05282 35.823 4.54393 35.4391C4.03504 35.0552 3.63692 34.5433 3.39007 33.9556C3.87628 34.1698 4.39711 34.2946 4.9276 34.3241C6.05851 34.4257 7.98996 34.4766 10.6838 34.4766C14.6357 34.4766 18.9433 34.3622 18.9814 34.3622H19.0576C23.3635 33.9965 27.3675 32.0014 30.2524 28.7839C32.7268 26.057 34.294 22.6295 34.7379 18.9742V19.9653Z" fill="#3770FF"/>
<path d="M33.4671 16.4201C33.4982 20.4486 32.019 24.3425 29.3212 27.3344C26.6233 30.3263 22.9026 32.1989 18.8923 32.5832C18.8923 32.5832 8.44728 32.8501 4.99102 32.5832C4.05757 32.4384 3.20876 31.9588 2.60312 31.2339C1.99747 30.509 1.67642 29.5884 1.69994 28.6441V4.0309C1.68828 3.08171 2.02427 2.16104 2.64454 1.44245C3.26482 0.723866 4.12654 0.25701 5.06726 0.129892C8.53623 -0.162366 18.9686 0.129892 18.9686 0.129892C22.9872 0.533893 26.7075 2.4324 29.3926 5.44938C32.0778 8.46637 33.532 12.3818 33.4671 16.4201Z" fill="#3770FF"/>
</g>
</g>
<defs>
<clipPath id="clip0_36451_363457">
<rect width="174.5" height="36.2597" fill="white"/>
</clipPath>
<clipPath id="clip1_36451_363457">
<rect width="36.2597" height="36.2597" fill="white" transform="translate(-0.0512695)"/>
</clipPath>
</defs>
</svg>
